<?xml version="1.0" encoding="utf-8"?>
<!-- Generator: Adobe Illustrator 16.0.0, SVG Export Plug-In . SVG Version: 6.00 Build 0)  -->
<!DOCTYPE svg PUBLIC "-//W3C//DTD SVG 1.1//EN" "http://www.w3.org/Graphics/SVG/1.1/DTD/svg11.dtd">
<svg version="1.1" xmlns="http://www.w3.org/2000/svg" xmlns:xlink="http://www.w3.org/1999/xlink" x="0px" y="0px"
	 width="149.167px" height="172.243px" viewBox="0 0 149.167 172.243" enable-background="new 0 0 149.167 172.243"
	 xml:space="preserve">
<g id="Layer_1">
	<polygon fill="#FF914D" points="149.167,129.183 74.583,172.243 0,129.183 0,43.061 74.583,0 149.167,43.061 	"/>
	<path display="none" fill="#FFFFFF" d="M41.88,84.75l25.09,26.784L54.889,84.75H41.88z M74.583,115.84L88.64,84.75H60.527
		L74.583,115.84z M55.009,79.594l8.217-15.466H52.673l-11.6,15.466H55.009z M82.196,111.534l25.091-26.784h-13.01L82.196,111.534z
		 M60.849,79.594h27.469l-8.217-15.466H69.065L60.849,79.594z M94.158,79.594h13.936l-11.6-15.466H85.942L94.158,79.594z
		 M99.835,60.02l15.467,20.621c0.376,0.483,0.55,1.04,0.523,1.671c-0.027,0.632-0.258,1.174-0.687,1.632l-38.664,41.243
		c-0.483,0.536-1.113,0.804-1.893,0.804c-0.778,0-1.408-0.268-1.892-0.804L34.026,83.944c-0.429-0.457-0.658-1-0.685-1.632
		c-0.027-0.631,0.147-1.188,0.523-1.671L49.331,60.02c0.484-0.699,1.168-1.047,2.054-1.047h46.398
		C98.667,58.973,99.353,59.322,99.835,60.02z"/>
	<polygon fill="#585858" points="139.167,124.182 74.584,162.243 10,124.182 10,48.061 74.584,10 139.167,48.061 	"/>
</g>
<g id="Layer_2">
	<g>
		<path fill="#FF914D" d="M31.083,120.061V54.46h37.799v7h-29.5v22.2h25v7h-25v29.4H31.083z"/>
	</g>
	<g>
		<path fill="#FF914D" d="M68.885,120.061V54.46h10l12.6,35c0.801,2.267,1.583,4.55,2.351,6.851c0.766,2.299,1.55,4.584,2.35,6.85
			h0.4c0.8-2.266,1.55-4.551,2.25-6.85c0.7-2.301,1.45-4.584,2.25-6.851l12.399-35h10.101v65.601h-7.8V83.96
			c0-2.933,0.133-6.166,0.399-9.7c0.266-3.533,0.5-6.766,0.7-9.7h-0.4l-5.199,14.9l-12.4,34h-5.5l-12.4-34l-5.199-14.9h-0.4
			c0.2,2.935,0.416,6.167,0.65,9.7c0.232,3.534,0.35,6.767,0.35,9.7v36.101H68.885z"/>
	</g>
	<g>
		<path fill="#FFFFFF" d="M26.583,120.061V54.46h37.799v7h-29.5v22.2h25v7h-25v29.4H26.583z"/>
	</g>
	<g>
		<path fill="#FFFFFF" d="M64.385,120.061V54.46h10l12.6,35c0.801,2.267,1.583,4.55,2.351,6.851c0.766,2.299,1.55,4.584,2.35,6.85
			h0.4c0.8-2.266,1.55-4.551,2.25-6.85c0.7-2.301,1.45-4.584,2.25-6.851l12.399-35h10.101v65.601h-7.8V83.96
			c0-2.933,0.133-6.166,0.399-9.7c0.266-3.533,0.5-6.766,0.7-9.7h-0.4l-5.199,14.9l-12.4,34h-5.5l-12.4-34l-5.199-14.9h-0.4
			c0.2,2.935,0.416,6.167,0.65,9.7c0.232,3.534,0.35,6.767,0.35,9.7v36.101H64.385z"/>
	</g>
</g>
</svg>
